# AST/ASF file generated using VICON BodyLanguage
# -----------------------------------------------
:version 1.10
:name VICON
:units
  mass 1.0
  length 0.45
  angle deg
:documentation
   .ast/.asf automatically generated from VICON data using
   VICON BodyBuilder and BodyLanguage model FoxedUp or BRILLIANT.MOD
:root
   order TX TY TZ RX RY RZ
   axis XYZ
   position 0 0 0  
   orientation 0 0 0 
:bonedata
  begin
     id 1 
     name lhipjoint
     direction 0.623529 -0.717805 0.309788 
     length 2.23224 
     axis 0 0 0  XYZ
  end
  begin
     id 2 
     name lfemur
     direction 0.34202 -0.939693 0  
     length 7.11402  
     axis 0 0 20  XYZ
    dof rx ry rz
    limits (-160.0 20.0)
           (-70.0 70.0)
           (-60.0 70.0)
  end
  begin
     id 3 
     name ltibia
     direction 0.34202 -0.939693 0   
     length 6.78496   
     axis 0 0 20   XYZ
    dof rx
    limits (-10.0 170.0)
  end
  begin
     id 4 
     name lfoot
     direction 0.125078 -0.343648 0.930732   
     length 1.84054   
     axis -90 7.62852e-016 20   XYZ
    dof rx rz
    limits (-45.0 90.0)
           (-70.0 20.0)
  end
  begin
     id 5 
     name ltoes
     direction 1.53565e-011 -4.21893e-011 1   
     length 0.916474   
     axis -90 7.62852e-016 20   XYZ
    dof rx
    limits (-90.0 20.0)
  end
  begin
     id 6 
     name rhipjoint
     direction -0.564688 -0.757748 0.327026   
     length 2.11457  
     axis 0 0 0  XYZ 
  end
  begin
     id 7 
     name rfemur
     direction -0.34202 -0.939693 0   
     length 7.14609   
     axis 0 0 -20   XYZ
    dof rx ry rz
    limits (-160.0 20.0)
           (-70.0 70.0)
           (-70.0 60.0)
  end
  begin
     id 8 
     name rtibia
     direction -0.34202 -0.939693 0   
     length 6.78101   
     axis 0 0 -20   XYZ
    dof rx
    limits (-10.0 170.0)
 end
 begin
     id 9 
     name rfoot
     direction -0.0992671 -0.272734 0.956955   
     length 1.96168  
     axis -90 -7.62852e-016 -20   XYZ
    dof rx rz
    limits (-45.0 90.0)
           (-20.0 70.0)
  end
  begin
     id 10 
     name rtoes
     direction -1.5356e-011 -4.21891e-011 1   
     length 0.982933   
     axis -90 -7.62852e-016 -20   XYZ
    dof rx
    limits (-90.0 20.0)
  end
  begin
     id 11 
     name lowerback
     direction -0.00596953 0.998668 0.0512524   
     length 1.87557   
     axis 0 0 0   XYZ
    dof rx ry rz
    limits (-20.0 45.0)
           (-30.0 30.0)
           (-30.0 30.0)
  end
  begin
     id 12 
     name upperback
     direction 0.00584879 0.999652 0.0257308   
     length 1.87883   
     axis 0 0 0   XYZ
    dof rx ry rz
    limits (-20.0 45.0)
           (-30.0 30.0)
           (-30.0 30.0)
  end
  begin
     id 13 
     name thorax
     direction 0.010104 0.999947 0.00178881   
     length 1.87779   
     axis 0 0 0   XYZ
    dof rx ry rz
    limits (-20.0 45.0)
           (-30.0 30.0)
           (-30.0 30.0)
  end
  begin
     id 14 
     name lowerneck
     direction 0.0120771 0.995934 -0.0892773   
     length 1.40897   
     axis 0 0 0   XYZ
    dof rx ry rz
    limits (-20.0 45.0)
           (-30.0 30.0)
           (-30.0 30.0)
  end
  begin
     id 15 
     name upperneck
     direction -0.030568 0.999465 -0.0116366   
     length 1.38661   
     axis 0 0 0   XYZ
    dof rx ry rz
    limits (-20.0 45.0)
           (-30.0 30.0)
           (-30.0 30.0)
  end
  begin
     id 16
     name head
     direction -0.0170715 0.999854 -0.00104426  
     length 1.47052  
     axis 0 0 0   XYZ
    dof rx ry rz
    limits (-20.0 45.0)
           (-30.0 30.0)
           (-30.0 30.0)
  end
  begin
     id 17 
     name lclavicle
     direction 0.977763 0.206143 0.038532  
     length 3.02424  
     axis 0 0 0   XYZ
    dof ry rz
    limits (-20.0 10.0)
           (0.0 20.0)
  end
  begin
     id 18 
     name lhumerus
     direction 1 -4.48965e-011 -2.62654e-027   
     length 4.68382   
     axis 180 -30 -90   XYZ
    dof rx ry rz
    limits (-60.0 90.0)
           (-90.0 90.0)
           (-90.0 90.0)
  end
  begin
     id 19
     name lradius
     direction 1 -4.48973e-011 -1.54954e-027   
     length 2.98124   
     axis 180 -30 -90   XYZ
    dof rx
    limits (-10.0 170.0)
  end
  begin
     id 20
     name lwrist
     direction 1 -4.48959e-011 7.20928e-028   
     length 1.49062   
     axis -5.52449e-016 90 90   XYZ
    dof ry
    limits (-180.0 0.0)
 end
  begin
     id 21 
     name lhand
     direction 1 -4.48971e-011 1.44186e-027   
     length 0.707595   
     axis -9.20027e-016 90 90   XYZ
    dof rx rz
    limits (-90.0 90.0)
           (-45.0 45.0)
  end
  begin
     id 22 
     name lfingers
     direction 1 -4.48985e-011 2.88371e-027   
     length 0.570481   
     axis -1.84005e-015 90 90   XYZ
    dof rx
    limits (0.0 90.0)
  end
  begin
     id 23
     name lthumb
     direction 0.707107 -6.34929e-011 0.707107   
     length 0.819101   
     axis -90 45 2.85299e-015   XYZ
    dof rx rz
    limits (-45.0 45.0)
           (-45.0 45.0)
  end
  begin
     id 24 
     name rclavicle
     direction -0.958661 0.284411 -0.00895327   
     length 3.11921  
     axis 0 0 0   XYZ 
    dof ry rz
    limits (-10.0 20.0)
           (-20.0 0.0)
  end
  begin
     id 25 
     name rhumerus
     direction -1 -4.48963e-011 -4.22193e-027  
     length 4.75876   
     axis 180 30 90   XYZ
    dof rx ry rz
    limits (-90.0 60.0)
           (-90.0 90.0)
           (-90.0 90.0)
  end
  begin
     id 26 
     name rradius
     direction -1 -4.48968e-011 -1.07616e-027   
     length 2.93293   
     axis 180 30 90   XYZ
    dof rx
    limits (-10.0 170.0)
  end
  begin
     id 27 
     name rwrist
     direction -1 -4.48965e-011 7.20928e-028   
     length 1.46647   
     axis -5.52449e-016 -90 -90   XYZ
    dof ry
    limits (-180.0 0.0)
  end
  begin
     id 28
     name rhand
     direction -1 -4.48971e-011 1.44186e-027   
     length 0.831748   
     axis -9.20027e-016 -90 -90   XYZ
    dof rx rz
    limits (-90.0 90.0)
           (-45.0 45.0)
  end
  begin
     id 29
     name rfingers
     direction -1 -4.48961e-011 2.88371e-027   
     length 0.670577   
     axis -1.84005e-015 -90 -90   XYZ
    dof rx
    limits (0.0 90.0)
  end
  begin
     id 30
     name rthumb
     direction -0.707107 -6.34929e-011 0.707107   
     length 0.962818   
     axis -90 -45 -2.85299e-015   XYZ
    dof rx rz
    limits (-45.0 45.0)
           (-45.0 45.0)
  end
:hierarchy
  begin
    root lhipjoint rhipjoint lowerback
    lhipjoint lfemur
    lfemur ltibia
    ltibia lfoot
    lfoot ltoes
    rhipjoint rfemur
    rfemur rtibia
    rtibia rfoot
    rfoot rtoes
    lowerback upperback
    upperback thorax
    thorax lowerneck lclavicle rclavicle
    lowerneck upperneck
    upperneck head
    lclavicle lhumerus
    lhumerus lradius
    lradius lwrist
    lwrist lhand lthumb
    lhand lfingers
    rclavicle rhumerus
    rhumerus rradius
    rradius rwrist
    rwrist rhand rthumb
    rhand rfingers
  end

#!OML:ASF E:\id_vita\Project 1\Capture day 1\Session 1\Female.ASF
:FULLY-SPECIFIED
:DEGREES
131
root -5.52779 27.0808 -0.944079 116.039 89.2065 102.47
lowerback -12.9015 -1.1747 -6.38014
upperback -3.02994 -0.620025 0.698722
thorax 4.11547 -0.311971 4.24513
lowerneck 4.19832 -1.1476 -2.01803
upperneck 7.73986 -1.66656 4.76783
head 1.78023 -0.735123 1.85128
rclavicle -3.18366e-015 1.69961e-014
rhumerus -43.7958 -25.1767 -66.6475
rradius 21.6688
rwrist 22.0291
rhand -11.9658 11.934
rfingers 7.12502
rthumb 14.0899 -17.5683
lclavicle -3.18366e-015 1.69961e-014
lhumerus -31.8729 30.2519 76.4424
lradius 17.3956
lwrist -42.0332
lhand -6.59765 22.0726
lfingers 7.12502
lthumb 19.2578 51.1391
rfemur -32.2356 9.65028 14.5374
rtibia 1.04958e-013
rfoot 8.08431 -8.33077
rtoes -2.57121
lfemur -6.82185 -10.2199 -26.0482
ltibia 16.3365
lfoot -20.7122 11.4296
ltoes 9.64259
132
root -5.47861 27.0591 -0.928641 196.674 91.8237 181.886
lowerback -14.5062 -0.587396 -6.16644
upperback -3.1539 0.233383 1.03579
thorax 4.75792 0.099693 4.6398
lowerneck 3.96474 -1.14605 -2.20374
upperneck 7.58617 -1.66053 4.5208
head 1.76935 -0.744872 1.8019
rclavicle -5.76165e-015 -1.18774e-014
rhumerus -43.5253 -25.1258 -66.4113
rradius 21.5481
rwrist 21.8264
rhand -12.3113 11.4519
rfingers 7.12502
rthumb 13.757 -18.0732
lclavicle -5.76165e-015 -1.18774e-014
lhumerus -32.1599 31.7498 76.0432
lradius 17.0946
lwrist -43.3837
lhand -6.61724 21.7484
lfingers 7.12502
lthumb 19.2389 50.8168
rfemur -33.9665 11.7601 14.4234
rtibia -8.90555e-014
rfoot 8.84193 -7.86145
rtoes -2.71082
lfemur -7.65614 -9.56791 -25.6125
ltibia 15.7788
lfoot -20.2565 12.5676
ltoes 9.97419
133
root -5.39572 27.0602 -0.929968 281.179 90.6112 267.646
lowerback -12.4177 -1.06315 -6.22839
upperback -3.40604 -0.534515 0.884064
thorax 3.44447 -0.2333 4.36941
lowerneck 3.92911 -1.18005 -2.17514
upperneck 8.23113 -1.7033 4.44
head 1.98524 -0.753272 1.77472
rclavicle -2.60594e-015 8.19987e-015
rhumerus -44.7575 -24.8879 -65.8832
rradius 21.6435
rwrist 21.8789
rhand -12.2685 10.9196
rfingers 7.12502
rthumb 13.7983 -18.6028
lclavicle -2.60594e-015 8.19987e-015
lhumerus -33.647 31.7516 74.9721
lradius 16.9316
lwrist -43.8089
lhand -6.79445 21.4484
lfingers 7.12502
lthumb 19.0685 50.5337
rfemur -31.7604 10.1861 14.6419
rtibia 5.725e-014
rfoot 8.55347 -7.90919
rtoes -1.81084
lfemur -5.82058 -10.2327 -25.9943
ltibia 15.5434
lfoot -20.6661 11.6277
ltoes 9.65021
134
root -5.32423 27.0541 -0.923139 332.974 91.3472 319.395
lowerback -12.7861 -1.46084 -6.45391
upperback -3.20797 -1.00964 0.975168
thorax 3.91682 -0.492337 4.51693
lowerneck 3.87968 -1.16983 -2.10838
upperneck 7.93932 -1.67472 4.17249
head 1.89253 -0.74854 1.67354
rclavicle -1.03585e-015 2.00773e-014
rhumerus -44.7512 -25.3485 -65.3855
rradius 21.5624
rwrist 22.2773
rhand -11.9264 11.2511
rfingers 7.12502
rthumb 14.1279 -18.2486
lclavicle -1.03585e-015 2.00773e-014
lhumerus -33.8285 32.4623 74.6691
lradius 16.6336
lwrist -44.5418
lhand -6.89724 21.4773
lfingers 7.12502
lthumb 18.9697 50.5722
rfemur -31.2835 9.25862 14.6391
rtibia 6.36111e-014
rfoot 8.43746 -7.79594
rtoes -0.557505
lfemur -5.56093 -10.6599 -26.0017
ltibia 15.4762
lfoot -20.8612 11.0808
ltoes 9.30562
135
root -5.25288 27.04 -0.906849 333.518 91.2708 319.882
lowerback -12.9875 -1.47 -6.50417
upperback -3.23693 -1.00207 1.04554
thorax 3.99741 -0.489707 4.62048
lowerneck 4.1891 -1.09863 -2.08269
upperneck 7.64978 -1.57348 4.11529
head 1.74041 -0.705105 1.64952
rclavicle 3.13785e-015 -1.71452e-015
rhumerus -44.9784 -25.3436 -65.2646
rradius 21.5815
rwrist 22.1048
rhand -12.0506 10.0658
rfingers 7.12502
rthumb 14.0083 -19.4422
lclavicle 3.13785e-015 -1.71452e-015
lhumerus -34.5703 33.3763 73.7717
lradius 16.3377
lwrist -45.6611
lhand -6.87991 21.4553
lfingers 7.12502
lthumb 18.9863 50.5487
rfemur -31.0468 9.48425 14.695
rtibia -7.63333e-014
rfoot 8.40547 -7.43982
rtoes 0.188556
lfemur -5.06318 -10.5545 -25.9384
ltibia 14.9678
lfoot -20.7103 11.0524
ltoes 9.14482
136
root -5.17436 27.0344 -0.897708 348.141 91.976 334.614
lowerback -13.3208 -1.72613 -6.54685
upperback -2.83537 -1.3216 1.17763
thorax 4.64959 -0.686912 4.72586
lowerneck 3.54843 -1.07235 -2.19433
upperneck 7.56738 -1.54484 4.09696
head 1.82467 -0.694134 1.66175
rclavicle -8.87086e-015 -4.40588e-015
rhumerus -44.6029 -26.2118 -64.7956
rradius 21.3173
rwrist 22.7418
rhand -12.147 9.60035
rfingers 7.12502
rthumb 13.9153 -19.914
lclavicle -8.87086e-015 -4.40588e-015
lhumerus -34.7936 35.4588 72.7684
lradius 15.7927
lwrist -47.8923
lhand -6.91849 21.0873
lfingers 7.12502
lthumb 18.9492 50.1842
rfemur -31.502 8.91849 14.9636
rtibia 2.46696
rfoot 6.91986 -7.8194
rtoes 1.10647
lfemur -4.56862 -10.7855 -25.7727
ltibia 14.8167
lfoot -20.8277 10.6254
ltoes 8.94734
137
root -5.09737 27.0257 -0.885238 353.752 92.3617 340.132
lowerback -12.8743 -1.69802 -6.18816
upperback -3.22927 -1.35263 1.02671
thorax 3.98194 -0.66048 4.3631
lowerneck 3.24202 -1.2222 -2.03777
upperneck 8.09656 -1.74204 4.05701
head 2.05459 -0.777166 1.62291
rclavicle 1.17959e-014 9.0944e-015
rhumerus -45.8391 -27.226 -63.7347
rradius 21.266
rwrist 23.5838
rhand -12.1212 9.72589
rfingers 7.12502
rthumb 13.9402 -19.7868
lclavicle 1.17959e-014 9.0944e-015
lhumerus -36.0852 36.0923 71.2136
lradius 15.4701
lwrist -49.358
lhand -6.67838 21.3288
lfingers 7.12502
lthumb 19.1801 50.403
rfemur -31.8944 8.72553 15.194
rtibia 4.21715
rfoot 5.91092 -8.12942
rtoes 2.01794
lfemur -4.27226 -10.8618 -25.5804
ltibia 14.576
lfoot -20.8434 10.4127
ltoes 8.67398
138
root -5.02293 27.0147 -0.876085 354.099 92.487 340.34
lowerback -13.4208 -1.72779 -6.30833
upperback -3.08599 -1.34248 1.15411
thorax 4.43658 -0.675244 4.56198
lowerneck 3.18881 -1.30377 -2.00237
upperneck 7.83644 -1.83345 3.72181
head 1.97606 -0.833881 1.5053
rclavicle -2.72999e-015 -1.20078e-014
rhumerus -45.9421 -27.9403 -62.9449
rradius 21.131
rwrist 24.0478
rhand -12.1384 9.557
rfingers 7.12502
rthumb 13.9237 -19.9568
lclavicle -2.72999e-015 -1.20078e-014
lhumerus -36.6614 37.2349 70.5165
lradius 15.191
lwrist -50.6676
lhand -6.42894 21.8136
lfingers 7.12502
lthumb 19.42 50.8638
rfemur -32.1945 8.78247 15.2166
rtibia 5.28249
rfoot 5.97351 -8.15853
rtoes 1.95284
lfemur -3.88605 -10.8777 -25.5856
ltibia 14.0684
lfoot -20.7048 10.3456
ltoes 8.13359
139
root -4.94727 27.0137 -0.866298 354.327 92.5398 340.459
lowerback -13.5802 -1.74856 -6.3233
upperback -3.15348 -1.35941 1.25251
thorax 4.45713 -0.681107 4.67124
lowerneck 3.14916 -1.26495 -2.09029
upperneck 7.73414 -1.77632 3.58213
head 1.94683 -0.812763 1.47526
rclavicle 7.70135e-015 -3.03147e-015
rhumerus -46.174 -27.9901 -62.523
rradius 21.1514
rwrist 24.0055
rhand -12.091 9.39254
rfingers 7.12502
rthumb 13.9694 -20.1181
lclavicle 7.70135e-015 -3.03147e-015
lhumerus -37.515 37.6318 69.8331
lradius 15.0121
lwrist -51.2014
lhand -6.4791 21.866
lfingers 7.12502
lthumb 19.3717 50.9211
rfemur -32.3674 8.89438 15.22
rtibia 5.76943
rfoot 7.09184 -8.0729
rtoes 1.41709
lfemur -3.40082 -11.0026 -25.5879
ltibia 13.4507
lfoot -20.4865 10.3504
ltoes 7.28432
140
root -4.86947 27.0255 -0.85388 356.605 92.6465 342.573
lowerback -13.6454 -1.69658 -6.05451
upperback -3.32202 -1.31597 1.19194
thorax 4.30242 -0.64378 4.46185
lowerneck 3.15203 -1.26616 -2.04984
upperneck 7.69362 -1.77549 3.55141
head 1.93206 -0.812394 1.45805
rclavicle -1.11257e-014 -4.52235e-015
rhumerus -46.7946 -28.4966 -61.9472
rradius 21.2187
rwrist 24.2617
rhand -11.9441 9.15646
rfingers 7.12502
rthumb 14.1109 -20.3444
lclavicle -1.11257e-014 -4.52235e-015
lhumerus -38.449 38.0824 68.6686
lradius 14.6672
lwrist -52.1247
lhand -6.54456 21.9321
lfingers 7.12502
lthumb 19.3088 50.9935
rfemur -32.6195 8.93978 15.2988
rtibia 6.15154
rfoot 8.48134 -8.01916
rtoes 1.34409
lfemur -2.92269 -11.2305 -25.4529
ltibia 12.6901
lfoot -19.977 10.3329
ltoes 6.24011
141
root -4.79366 27.0367 -0.841749 358.65 92.8222 344.513
lowerback -13.2949 -1.6393 -6.08367
upperback -3.67897 -1.25973 1.31923
thorax 3.73045 -0.583781 4.6286
lowerneck 3.127 -1.36556 -2.12796
upperneck 7.8976 -1.89996 3.38914
head 2.00533 -0.876328 1.4193
rclavicle 7.97546e-015 -7.8023e-015
rhumerus -47.8546 -29.0768 -60.5974
rradius 21.3318
rwrist 24.7749
rhand -11.5745 9.07458
rfingers 7.12502
rthumb 14.467 -20.4011
lclavicle 7.97546e-015 -7.8023e-015
lhumerus -40.201 39.589 66.7041
lradius 14.168
lwrist -54.4653
lhand -6.54156 21.8286
lfingers 7.12502
lthumb 19.3117 50.8897
rfemur -32.7265 8.91442 15.3727
rtibia 6.36283
rfoot 9.79384 -7.83349
rtoes 1.11087
lfemur -2.32536 -11.4387 -25.3375
ltibia 11.7801
lfoot -19.3314 10.2395
ltoes 5.14375
142
root -4.71786 27.042 -0.829584 360.612 92.9821 346.421
lowerback -13.4824 -1.66721 -6.0631
upperback -3.57659 -1.29456 1.4585
thorax 3.94773 -0.61179 4.75695
lowerneck 2.71073 -1.39052 -2.25802
upperneck 7.86127 -1.93136 3.28958
head 2.06777 -0.898139 1.40809
rclavicle 3.27995e-015 -1.20265e-014
rhumerus -48.0609 -29.9626 -59.6082
rradius 21.2545
rwrist 25.4379
rhand -11.3228 9.26964
rfingers 7.12502
rthumb 14.7095 -20.1885
lclavicle 3.27995e-015 -1.20265e-014
lhumerus -41.6406 41.933 64.5236
lradius 13.6344
lwrist -57.5304
lhand -6.69246 21.4201
lfingers 7.12502
lthumb 19.1666 50.4956
rfemur -32.6937 8.91907 15.4781
rtibia 6.46982
rfoot 10.8828 -7.67493
rtoes 0.503741
lfemur -1.71564 -11.5149 -25.2296
ltibia 10.9558
lfoot -18.8887 10.0885
ltoes 4.60485
143
root -4.64042 27.0501 -0.818645 363.931 93.1251 349.654
lowerback -13.9039 -1.76273 -6.01714
upperback -3.36345 -1.41416 1.69338
thorax 4.42306 -0.694224 4.95546
lowerneck 2.18009 -1.37759 -2.32988
upperneck 7.82055 -1.89765 2.96635
head 2.14263 -0.891179 1.31486
rclavicle 6.65929e-015 4.37326e-015
rhumerus -47.8837 -30.7456 -58.8463
rradius 21.0665
rwrist 25.8821
rhand -11.2669 9.48058
rfingers 7.12502
rthumb 14.7633 -19.9736
lclavicle 6.65929e-015 4.37326e-015
lhumerus -43.0677 44.1844 62.541
lradius 13.2665
lwrist -60.2082
lhand -6.70771 21.5434
lfingers 7.12502
lthumb 19.1519 50.6204
rfemur -32.7083 8.96363 15.6856
rtibia 6.70082
rfoot 11.9972 -7.58093
rtoes -0.496167
lfemur -1.2312 -11.4438 -25.0145
ltibia 10.3137
lfoot -18.5261 9.8553
ltoes 4.64091
